<svg width="24" height="24" viewBox="0 0 24 24" fill="none" xmlns="http://www.w3.org/2000/svg">
<path d="M11.85 1C13.775 1 15.6125 1.525 17.275 2.4875C18.9375 3.45 20.25 4.7625 21.2125 6.425C22.175 8.0875 22.7 9.925 22.7 11.85C22.7 13.8187 22.175 15.6125 21.2125 17.275C20.25 18.9375 18.9375 20.2938 17.275 21.2563C15.6125 22.2188 13.775 22.7 11.85 22.7C9.88125 22.7 8.0875 22.2188 6.425 21.2563C4.7625 20.2938 3.40625 18.9375 2.44375 17.275C1.48125 15.6125 1 13.8187 1 11.85C1 9.925 1.48125 8.0875 2.44375 6.425C3.40625 4.7625 4.7625 3.45 6.425 2.4875C8.0875 1.525 9.88125 1 11.85 1ZM21.3 11.85C21.3 10.1437 20.8625 8.56875 20.0312 7.125C19.1562 5.68125 18.0187 4.54375 16.575 3.66875C15.0875 2.8375 13.5125 2.4 11.8062 2.4C10.1 2.4 8.525 2.8375 7.08125 3.66875C5.6375 4.54375 4.5 5.68125 3.66875 7.125C2.79375 8.6125 2.4 10.1875 2.4 11.8938C2.4 13.6 2.79375 15.175 3.66875 16.6187C4.5 18.0625 5.6375 19.2 7.125 20.0312C8.56875 20.9062 10.1437 21.3 11.85 21.3C13.5562 21.3 15.1312 20.9062 16.575 20.0312C18.0187 19.2 19.1562 18.0625 20.0312 16.575C20.8625 15.1312 21.3 13.5562 21.3 11.85ZM14.7812 15.7C14.8687 15.7875 15 15.8313 15.175 15.8313C15.3063 15.8313 15.4375 15.7438 15.525 15.6125L15.875 15.0875C15.9625 15 15.9625 14.8688 15.9625 14.7375C15.9625 14.6062 15.875 14.475 15.7875 14.3875L12.6812 12.1125V5.725C12.6812 5.59375 12.5937 5.4625 12.5062 5.375C12.4187 5.2875 12.2875 5.2 12.1562 5.2H11.5437C11.3687 5.2 11.2375 5.2875 11.15 5.375C11.0625 5.4625 11.0188 5.59375 11.0188 5.725V12.725C11.0188 12.9 11.0625 13.0312 11.2375 13.1187L14.7812 15.7Z" fill="#F593AB"/>
</svg>
