<svg width="13" height="13" viewBox="0 0 13 13" fill="none" xmlns="http://www.w3.org/2000/svg">
<path d="M6.125 2.98047C6.67188 2.98047 7.19141 3.14453 7.68359 3.41797C8.17578 3.69141 8.55859 4.07422 8.83203 4.56641C9.10547 5.05859 9.26953 5.57812 9.26953 6.125C9.26953 6.69922 9.10547 7.21875 8.83203 7.71094C8.55859 8.20312 8.17578 8.58594 7.68359 8.85938C7.19141 9.13281 6.67188 9.26953 6.125 9.26953C5.55078 9.26953 5.03125 9.13281 4.53906 8.85938C4.04688 8.58594 3.66406 8.20312 3.39062 7.71094C3.11719 7.21875 2.98047 6.69922 2.98047 6.125C2.98047 5.57812 3.11719 5.05859 3.39062 4.56641C3.66406 4.07422 4.04688 3.69141 4.53906 3.41797C5.03125 3.14453 5.55078 2.98047 6.125 2.98047ZM6.125 8.17578C6.67188 8.17578 7.16406 7.98438 7.57422 7.57422C7.95703 7.19141 8.17578 6.69922 8.17578 6.125C8.17578 5.57812 7.95703 5.08594 7.57422 4.67578C7.16406 4.29297 6.67188 4.07422 6.125 4.07422C5.55078 4.07422 5.05859 4.29297 4.67578 4.67578C4.26562 5.08594 4.07422 5.57812 4.07422 6.125C4.07422 6.69922 4.26562 7.19141 4.67578 7.57422C5.05859 7.98438 5.55078 8.17578 6.125 8.17578ZM10.1445 2.84375C10.1445 2.65234 10.0625 2.48828 9.92578 2.32422C9.76172 2.1875 9.59766 2.10547 9.40625 2.10547C9.1875 2.10547 9.02344 2.1875 8.88672 2.32422C8.72266 2.48828 8.66797 2.65234 8.66797 2.84375C8.66797 3.0625 8.72266 3.22656 8.88672 3.36328C9.02344 3.52734 9.1875 3.58203 9.40625 3.58203C9.59766 3.58203 9.76172 3.52734 9.89844 3.36328C10.0352 3.22656 10.1172 3.0625 10.1445 2.84375ZM12.2227 3.58203C12.2227 4.10156 12.25 4.94922 12.25 6.125C12.25 7.32812 12.2227 8.17578 12.1953 8.69531C12.168 9.21484 12.0859 9.65234 11.9766 10.0352C11.8125 10.5 11.5391 10.9102 11.2109 11.2383C10.8828 11.5664 10.4727 11.8125 10.0352 11.9766C9.65234 12.1133 9.1875 12.1953 8.66797 12.2227C8.14844 12.25 7.30078 12.25 6.125 12.25C4.92188 12.25 4.07422 12.25 3.55469 12.2227C3.03516 12.1953 2.59766 12.1133 2.21484 11.9492C1.75 11.8125 1.33984 11.5664 1.01172 11.2383C0.683594 10.9102 0.4375 10.5 0.273438 10.0352C0.136719 9.65234 0.0546875 9.21484 0.0273438 8.69531C0 8.17578 0 7.32812 0 6.125C0 4.94922 0 4.10156 0.0273438 3.58203C0.0546875 3.0625 0.136719 2.59766 0.273438 2.21484C0.4375 1.77734 0.683594 1.36719 1.01172 1.03906C1.33984 0.710938 1.75 0.4375 2.21484 0.273438C2.59766 0.164062 3.03516 0.0820312 3.55469 0.0546875C4.07422 0.0273438 4.92188 0 6.125 0C7.30078 0 8.14844 0.0273438 8.66797 0.0546875C9.1875 0.0820312 9.65234 0.164062 10.0352 0.273438C10.4727 0.4375 10.8828 0.710938 11.2109 1.03906C11.5391 1.36719 11.8125 1.77734 11.9766 2.21484C12.0859 2.59766 12.168 3.0625 12.2227 3.58203ZM10.9102 9.73438C11.0195 9.43359 11.0742 8.94141 11.1289 8.25781C11.1289 7.875 11.1562 7.30078 11.1562 6.5625V5.6875C11.1562 4.94922 11.1289 4.375 11.1289 3.99219C11.0742 3.30859 11.0195 2.81641 10.9102 2.51562C10.6914 1.96875 10.2812 1.55859 9.73438 1.33984C9.43359 1.23047 8.94141 1.17578 8.25781 1.12109C7.84766 1.12109 7.27344 1.09375 6.5625 1.09375H5.6875C4.94922 1.09375 4.375 1.12109 3.99219 1.12109C3.30859 1.17578 2.81641 1.23047 2.51562 1.33984C1.94141 1.55859 1.55859 1.96875 1.33984 2.51562C1.23047 2.81641 1.14844 3.30859 1.12109 3.99219C1.09375 4.40234 1.09375 4.97656 1.09375 5.6875V6.5625C1.09375 7.30078 1.09375 7.875 1.12109 8.25781C1.14844 8.94141 1.23047 9.43359 1.33984 9.73438C1.55859 10.3086 1.96875 10.6914 2.51562 10.9102C2.81641 11.0195 3.30859 11.1016 3.99219 11.1289C4.375 11.1562 4.94922 11.1562 5.6875 11.1562H6.5625C7.30078 11.1562 7.875 11.1562 8.25781 11.1289C8.94141 11.1016 9.43359 11.0195 9.73438 10.9102C10.2812 10.6914 10.6914 10.2812 10.9102 9.73438Z" fill="#333333"/>
</svg>
