<svg width="14" height="12" viewBox="0 0 14 12" fill="none" xmlns="http://www.w3.org/2000/svg">
<path d="M13.7266 4.22266C13.0703 4.74219 11.6484 5.78125 9.51562 7.3125L9.24219 7.53125C8.80469 7.85938 8.47656 8.10547 8.20312 8.24219C7.76562 8.51562 7.35547 8.625 7 8.625C6.61719 8.625 6.23438 8.51562 5.79688 8.26953C5.52344 8.13281 5.19531 7.88672 4.75781 7.55859L4.48438 7.3125C2.26953 5.72656 0.875 4.6875 0.273438 4.22266C0.21875 4.19531 0.136719 4.19531 0.0820312 4.22266C0.0273438 4.25 0 4.30469 0 4.35938V9.9375C0 10.3203 0.109375 10.6211 0.382812 10.8672C0.628906 11.1406 0.929688 11.25 1.3125 11.25H12.6875C13.043 11.25 13.3438 11.1406 13.6172 10.8672C13.8633 10.6211 14 10.3203 14 9.9375V4.35938C14 4.30469 13.9453 4.25 13.8906 4.19531C13.8359 4.16797 13.7812 4.16797 13.7266 4.22266ZM7 7.75C6.75391 7.75 6.45312 7.64062 6.125 7.42188C5.90625 7.3125 5.63281 7.12109 5.27734 6.82031L5.00391 6.62891C2.76172 4.98828 1.23047 3.86719 0.4375 3.23828L0.246094 3.10156C0.0820312 2.99219 0 2.80078 0 2.58203V2.0625C0 1.70703 0.109375 1.40625 0.382812 1.13281C0.628906 0.886719 0.929688 0.75 1.3125 0.75H12.6875C13.043 0.75 13.3438 0.886719 13.6172 1.13281C13.8633 1.40625 14 1.70703 14 2.0625V2.58203C14 2.80078 13.918 2.99219 13.7539 3.10156L13.6172 3.21094C12.8242 3.83984 11.293 4.98828 8.99609 6.62891L8.72266 6.82031C8.33984 7.12109 8.06641 7.3125 7.875 7.42188C7.51953 7.64062 7.21875 7.75 7 7.75Z" fill="#333333"/>
</svg>
