<svg width="80" height="80" viewBox="0 0 80 80" fill="none" xmlns="http://www.w3.org/2000/svg">
<path d="M66.0645 16.3225V12.9031C66.0645 12.1934 65.4839 11.6128 64.7742 11.6128H15.7419C15.0322 11.6128 14.4516 12.1934 14.4516 12.9031V23.2257H65.5645L66.0645 16.3225Z" fill="#F593AB"/>
<path d="M33.2742 53.0966C39.0465 53.0966 43.7258 48.4172 43.7258 42.645C43.7258 36.8727 39.0465 32.1934 33.2742 32.1934C27.5019 32.1934 22.8226 36.8727 22.8226 42.645C22.8226 48.4172 27.5019 53.0966 33.2742 53.0966Z" fill="#F593AB"/>
<path d="M45.4193 67.0967H35.0968C33.6774 67.0967 32.5161 68.258 32.5161 69.6773C32.5161 72.516 34.8387 74.8386 37.6774 74.8386H42.8387C45.6774 74.8386 48 72.516 48 69.6773C48 68.258 46.8387 67.0967 45.4193 67.0967ZM42.8387 72.258H37.6774C36.258 72.258 35.0968 71.0967 35.0968 69.6773H45.4193C45.4193 71.0967 44.258 72.258 42.8387 72.258Z" fill="#333333"/>
<path d="M35.0968 5.16138H50.5807V7.74202H35.0968V5.16138Z" fill="#333333"/>
<path d="M29.9355 5.16138H32.5161V7.74202H29.9355V5.16138Z" fill="#333333"/>
<path d="M28.6451 15.4839H31.2258V18.0645H28.6451V15.4839Z" fill="#333333"/>
<path d="M18.3226 15.4839H20.9032V18.0645H18.3226V15.4839Z" fill="#333333"/>
<path d="M23.4839 15.4839H26.0645V18.0645H23.4839V15.4839Z" fill="#333333"/>
<path d="M72.5161 15.6129V6.45161C72.5161 2.8871 69.629 0 66.0645 0H14.4516C10.8871 0 8 2.8871 8 6.45161V73.5484C8 77.1129 10.8871 80 14.4516 80H66.0645C69.629 80 72.5161 77.1129 72.5161 73.5484V53.3871V15.6129ZM69.9355 54.0806V73.5484C69.9355 75.6774 68.1935 77.4193 66.0645 77.4193H14.4516C12.3226 77.4193 10.5806 75.6774 10.5806 73.5484V6.45161C10.5806 4.32258 12.3226 2.58065 14.4516 2.58065H66.0645C68.1935 2.58065 69.9355 4.32258 69.9355 6.45161V13.629V54.0806ZM67.3548 13.629V12.9032C67.3548 11.4839 66.1935 10.3226 64.7742 10.3226H15.7419C14.3226 10.3226 13.1613 11.4839 13.1613 12.9032V61.9355C13.1613 63.3548 14.3226 64.5161 15.7419 64.5161H64.7742C66.1935 64.5161 67.3548 63.3548 67.3548 61.9355V54.0806V13.629ZM64.7742 53.3871V61.9355H15.7419V12.9032H64.7742V15.6129V53.3871Z" fill="#333333"/>
<path d="M54.5 46.7418C52.6129 46.1612 50.5645 46.6612 49.1613 48.0483L44.0968 44.6612C44.2258 43.9999 44.2903 43.3386 44.2903 42.6451C44.2903 41.9515 44.2258 41.258 44.0968 40.5967L49.1774 37.2096C50.1774 38.1934 51.5161 38.758 52.9193 38.758C55.8548 38.758 58.2419 36.3709 58.2419 33.4354C58.2419 30.4999 55.8548 28.1128 52.9193 28.1128C49.9838 28.1128 47.5968 30.4999 47.5968 33.4354C47.5968 33.9676 47.6774 34.4999 47.8387 34.9999C47.8387 34.9999 45.2419 36.7418 43.2903 38.0322C41.5484 34.258 37.7258 31.6289 33.2903 31.6289C27.2097 31.6289 22.2742 36.5644 22.2742 42.6451C22.2742 48.7257 27.2097 53.6612 33.2903 53.6612C37.7258 53.6612 41.5645 51.016 43.3064 47.2257L47.8387 50.258C46.9677 53.0644 48.5322 56.0644 51.3548 56.9354C54.1613 57.8064 57.1613 56.2418 58.0322 53.4193C58.8871 50.6128 57.3226 47.6128 54.5 46.7418ZM52.9032 30.6934C54.4193 30.6934 55.6451 31.9192 55.6451 33.4354C55.6451 34.9515 54.4193 36.1773 52.9032 36.1773C51.3871 36.1773 50.1613 34.9515 50.1613 33.4354C50.1774 31.9192 51.4032 30.6934 52.9032 30.6934ZM33.2742 50.9999C28.6613 50.9999 24.9193 47.258 24.9193 42.6451C24.9193 38.0322 28.6613 34.2902 33.2742 34.2902C37.8871 34.2902 41.629 38.0322 41.629 42.6451C41.629 47.258 37.8709 50.9999 33.2742 50.9999ZM52.9032 54.5644C51.3871 54.5644 50.1613 53.3386 50.1613 51.8225C50.1613 50.3064 51.3871 49.0805 52.9032 49.0805C54.4193 49.0805 55.6451 50.3064 55.6451 51.8225C55.6451 53.3386 54.4193 54.5644 52.9032 54.5644Z" fill="#333333"/>
<path d="M34.5 41.8548L32.5484 41.3709C32.3064 41.3064 32.1613 41.0645 32.2097 40.8225C32.2419 40.6935 32.3226 40.5806 32.4516 40.5322C32.9677 40.2741 33.5645 40.2741 34.0645 40.5322L34.9032 40.9515C35.4193 41.2257 36.0645 41.0161 36.3226 40.4838C36.5968 39.9677 36.3871 39.3225 35.8548 39.0644H35.8387L35 38.6451C34.7742 38.5322 34.5484 38.4515 34.3064 38.3709V36.8225H32.1774V38.3709C31.9355 38.4354 31.7097 38.5322 31.4839 38.6451C30.2097 39.2741 29.6935 40.8225 30.3387 42.0967C30.6774 42.7741 31.2903 43.258 32.0161 43.4515L33.9677 43.9354C34.2097 43.9999 34.3548 44.2419 34.3064 44.4838C34.2742 44.6128 34.1935 44.7257 34.0645 44.7741C33.5484 45.0322 32.9516 45.0322 32.4516 44.7741L31.6129 44.3548C31.0968 44.0806 30.4516 44.2903 30.1935 44.8225C29.9355 45.3548 30.129 45.9838 30.6613 46.2419H30.6774L31.5161 46.6612C31.7419 46.7741 31.9677 46.8548 32.2097 46.9354V48.4838H34.3387V46.9354C34.5806 46.8709 34.8064 46.7741 35.0322 46.6612C36.3064 46.0322 36.8226 44.4838 36.1774 43.2096C35.8387 42.5322 35.2258 42.0483 34.5 41.8548Z" fill="#333333"/>
</svg>
