<svg width="16" height="16" viewBox="0 0 16 16" fill="none" xmlns="http://www.w3.org/2000/svg">
<path d="M1.75 3C1.75 2.30964 2.30964 1.75 3 1.75C3.69036 1.75 4.25 2.30964 4.25 3C4.25 3.69036 3.69036 4.25 3 4.25C2.30964 4.25 1.75 3.69036 1.75 3Z" fill="white"/>
<path d="M6.75 3C6.75 2.30964 7.30964 1.75 8 1.75C8.69036 1.75 9.25 2.30964 9.25 3C9.25 3.69036 8.69036 4.25 8 4.25C7.30964 4.25 6.75 3.69036 6.75 3Z" fill="white"/>
<path d="M11.75 3C11.75 2.30964 12.3096 1.75 13 1.75C13.6904 1.75 14.25 2.30964 14.25 3C14.25 3.69036 13.6904 4.25 13 4.25C12.3096 4.25 11.75 3.69036 11.75 3Z" fill="white"/>
<path d="M1.75 8C1.75 7.30964 2.30964 6.75 3 6.75C3.69036 6.75 4.25 7.30964 4.25 8C4.25 8.69036 3.69036 9.25 3 9.25C2.30964 9.25 1.75 8.69036 1.75 8Z" fill="white"/>
<path d="M6.75 8C6.75 7.30964 7.30964 6.75 8 6.75C8.69036 6.75 9.25 7.30964 9.25 8C9.25 8.69036 8.69036 9.25 8 9.25C7.30964 9.25 6.75 8.69036 6.75 8Z" fill="white"/>
<path d="M11.75 8C11.75 7.30964 12.3096 6.75 13 6.75C13.6904 6.75 14.25 7.30964 14.25 8C14.25 8.69036 13.6904 9.25 13 9.25C12.3096 9.25 11.75 8.69036 11.75 8Z" fill="white"/>
<path d="M1.75 13C1.75 12.3096 2.30964 11.75 3 11.75C3.69036 11.75 4.25 12.3096 4.25 13C4.25 13.6904 3.69036 14.25 3 14.25C2.30964 14.25 1.75 13.6904 1.75 13Z" fill="white"/>
<path d="M6.75 13C6.75 12.3096 7.30964 11.75 8 11.75C8.69036 11.75 9.25 12.3096 9.25 13C9.25 13.6904 8.69036 14.25 8 14.25C7.30964 14.25 6.75 13.6904 6.75 13Z" fill="white"/>
<path d="M11.75 13C11.75 12.3096 12.3096 11.75 13 11.75C13.6904 11.75 14.25 12.3096 14.25 13C14.25 13.6904 13.6904 14.25 13 14.25C12.3096 14.25 11.75 13.6904 11.75 13Z" fill="white"/>
</svg>
