<svg width="24" height="24" viewBox="0 0 24 24" fill="none" xmlns="http://www.w3.org/2000/svg">
<path d="M15.9375 13.4C16.9875 13.4 17.95 13.6625 18.8687 14.1875C19.7437 14.7125 20.4875 15.4563 21.0125 16.3313C21.5375 17.25 21.8 18.2125 21.8 19.2625V21.1C21.8 21.7125 21.5812 22.1938 21.1875 22.5875C20.75 23.025 20.2687 23.2 19.7 23.2H4.29995C3.68745 23.2 3.2062 23.025 2.81245 22.5875C2.37495 22.1938 2.19995 21.7125 2.19995 21.1V19.2625C2.19995 18.2125 2.46245 17.25 2.98745 16.3313C3.51245 15.4563 4.21245 14.7125 5.1312 14.1875C6.0062 13.6625 7.01245 13.4 8.06245 13.4C8.41245 13.4 8.93745 13.5313 9.54995 13.7063C9.9437 13.8375 10.2937 13.925 10.5562 13.9688C10.9937 14.0563 11.475 14.1 12 14.1C12.525 14.1 13.0062 14.0563 13.4437 13.9688C13.7062 13.925 14.0125 13.8375 14.45 13.7063C15.0625 13.5313 15.5437 13.4 15.9375 13.4ZM20.4 21.1V19.2625C20.4 18.0375 19.9625 16.9875 19.0875 16.1125C18.2125 15.2375 17.1625 14.8 15.9375 14.8C15.675 14.8 15.325 14.8875 14.8437 15.0188C13.8375 15.3688 12.875 15.5 12 15.5C11.0812 15.5 10.1187 15.3688 9.1562 15.0188C8.6312 14.8875 8.2812 14.8 8.06245 14.8C6.83745 14.8 5.78745 15.2375 4.91245 16.1125C4.03745 16.9875 3.59995 18.0375 3.59995 19.2625V21.1C3.59995 21.3188 3.6437 21.4938 3.77495 21.625C3.9062 21.7563 4.0812 21.8 4.29995 21.8H19.7C19.875 21.8 20.05 21.7563 20.1812 21.625C20.3125 21.4938 20.4 21.3188 20.4 21.1ZM12 12C10.95 12 10.0312 11.7813 9.1562 11.2563C8.2812 10.775 7.62495 10.1188 7.1437 9.24375C6.6187 8.36875 6.39995 7.45 6.39995 6.4C6.39995 5.39375 6.6187 4.475 7.1437 3.6C7.62495 2.725 8.2812 2.06875 9.1562 1.54375C10.0312 1.0625 10.95 0.800003 12 0.800003C13.0062 0.800003 13.925 1.0625 14.8 1.54375C15.675 2.06875 16.3312 2.725 16.8562 3.6C17.3375 4.475 17.6 5.39375 17.6 6.4C17.6 7.45 17.3375 8.36875 16.8562 9.24375C16.3312 10.1188 15.675 10.775 14.8 11.2563C13.925 11.7813 13.0062 12 12 12ZM12 2.2C10.8187 2.2 9.81245 2.6375 9.02495 3.425C8.1937 4.25625 7.79995 5.2625 7.79995 6.4C7.79995 7.58125 8.1937 8.5875 9.02495 9.375C9.81245 10.2063 10.8187 10.6 12 10.6C13.1375 10.6 14.1437 10.2063 14.975 9.375C15.7625 8.5875 16.2 7.58125 16.2 6.4C16.2 5.2625 15.7625 4.25625 14.975 3.425C14.1437 2.6375 13.1375 2.2 12 2.2Z" fill="#333333"/>
</svg>
