<svg width="16" height="16" viewBox="0 0 16 16" fill="none" xmlns="http://www.w3.org/2000/svg">
<path fill-rule="evenodd" clip-rule="evenodd" d="M13.8345 13.669L13.5862 13.8345C13.5034 13.9172 13.3379 14 13.2552 14C13.1724 14 13.0897 14 13.0897 13.9172C13.0069 13.9172 13.0069 13.8345 12.9241 13.8345L10.0276 10.9379C9.94483 10.9379 9.94483 10.8552 9.94483 10.7724C9.53103 11.1034 9.11724 11.269 8.70345 11.4345C8.12414 11.6828 7.54483 11.7655 6.88276 11.7655C5.97241 11.7655 5.14483 11.5172 4.4 11.1034C3.65517 10.7724 3.07586 10.1103 2.66207 9.36552C2.24828 8.62069 2 7.7931 2 6.88276C2 5.97241 2.24828 5.14483 2.66207 4.4C3.07586 3.73793 3.65517 3.07586 4.4 2.66207C5.22759 2.24828 6.05517 2 6.88276 2C7.7931 2 8.62069 2.24828 9.36552 2.66207C10.1103 3.07586 10.6897 3.73793 11.1862 4.48276C11.6 5.22759 11.8483 6.05517 11.8483 6.96552C11.8483 7.62759 11.7655 8.2069 11.5172 8.78621C11.3517 9.2 11.1034 9.61379 10.8552 10.0276C10.9379 10.0276 10.9379 10.1103 10.9379 10.1103L13.8345 13.0069C13.9172 13.0897 14 13.2552 14 13.3379C14 13.4207 14 13.5862 13.8345 13.669ZM6.88276 10.6897C7.54483 10.6897 8.2069 10.5241 8.78621 10.1931C9.36552 9.86207 9.77931 9.36552 10.1931 8.78621C10.5241 8.2069 10.6897 7.54483 10.6897 6.88276C10.6897 6.22069 10.5241 5.55862 10.1931 4.97931C9.86207 4.48276 9.36552 3.98621 8.78621 3.65517C8.2069 3.32414 7.62759 3.15862 6.88276 3.15862C6.22069 3.15862 5.55862 3.32414 4.97931 3.65517C4.4 3.98621 3.98621 4.48276 3.65517 5.06207C3.32414 5.64138 3.15862 6.22069 3.15862 6.88276C3.15862 7.54483 3.32414 8.2069 3.65517 8.78621C3.98621 9.36552 4.48276 9.77931 5.06207 10.1931C5.55862 10.5241 6.22069 10.6897 6.88276 10.6897Z" fill="white"/>
</svg>
