<svg width="80" height="80" viewBox="0 0 80 80" fill="none" xmlns="http://www.w3.org/2000/svg">
<g clip-path="url(#clip0_97_33)">
<path d="M49.1213 29.1963L47.5 25.955V20C47.5 9.66125 39.0887 1.25 28.75 1.25C18.4113 1.25 10 9.66125 10 20V25.955L8.37875 29.1975C7.80375 30.3475 7.5 31.635 7.5 32.9212C7.5 37.5137 11.2363 41.25 15.8288 41.25H23.3113C19.47 39.3887 16.7275 35.6237 16.3112 31.1775V31.25H15C12.9288 31.25 11.25 29.5712 11.25 27.5C11.25 25.4288 12.9288 23.75 15 23.75H16.25V21.5987C16.25 19.215 17.9325 17.1638 20.27 16.6963L20.7575 16.5988C22.2263 17.9587 24.1788 18.75 26.25 18.75H38.75H41.25V23.75H42.5C44.5713 23.75 46.25 25.4288 46.25 27.5C46.25 29.5712 44.5713 31.25 42.5 31.25H41.1888V31.1975C40.7663 35.6362 38.0238 39.3925 34.1875 41.25H41.6713C46.2638 41.25 50 37.5137 50 32.9212C50 31.635 49.6963 30.3475 49.1213 29.1963Z" fill="#F593AB"/>
<path d="M57.5 15H72.5V20H57.5V15Z" fill="#F593AB"/>
<path d="M27.5 23.75H25C25 24.4388 24.4387 25 23.75 25C23.0612 25 22.5 24.4388 22.5 23.75H20C20 25.8175 21.6825 27.5 23.75 27.5C25.8175 27.5 27.5 25.8175 27.5 23.75Z" fill="#333333"/>
<path d="M33.75 27.5C35.8175 27.5 37.5 25.8175 37.5 23.75H35C35 24.4388 34.4387 25 33.75 25C33.0612 25 32.5 24.4388 32.5 23.75H30C30 25.8175 31.6825 27.5 33.75 27.5Z" fill="#333333"/>
<path d="M36.1787 43.9526L33.7363 43.8164C33.7238 43.4901 33.6838 43.1689 33.6188 42.8564C38.1237 41.1514 41.3925 37.1889 42.2625 32.5001H42.5C45.2575 32.5001 47.5 30.2576 47.5 27.5001C47.5 24.7426 45.2575 22.5001 42.5 22.5001V17.5001H38.75C36.1425 17.5001 33.7987 16.0514 32.6312 13.7201L32.3675 13.1926L30.1312 14.3101L30.395 14.8389C30.9075 15.8639 31.6 16.7464 32.4038 17.4951C29.835 17.4601 27.5337 16.0239 26.3812 13.7214L26.1175 13.1939L23.8812 14.3114L24.145 14.8401C24.6575 15.8651 25.35 16.7476 26.1538 17.4964C23.585 17.4614 21.2837 16.0251 20.1312 13.7226L19.8675 13.1951L17.6312 14.3126L17.895 14.8414C18.095 15.2414 18.3212 15.6226 18.57 15.9826C16.4425 16.9989 15 19.1564 15 21.5989V22.5001C12.2425 22.5001 10 24.7426 10 27.5001C10 30.2576 12.2425 32.5001 15 32.5001H15.2362C16.0063 36.6851 18.6713 40.3051 22.52 42.2589L22.315 43.8964L21.3212 43.9514C10.0662 44.5776 1.25 53.8976 1.25 65.1701C1.25 72.6576 7.3425 78.7501 14.83 78.7501H56.25V65.1701C56.25 53.8976 47.4338 44.5776 36.1787 43.9526ZM12.5 27.5001C12.5 26.1214 13.6213 25.0001 15 25.0001V30.0001C13.6213 30.0001 12.5 28.8789 12.5 27.5001ZM45 27.5001C45 28.8789 43.8787 30.0001 42.5 30.0001V25.0001C43.8787 25.0001 45 26.1214 45 27.5001ZM17.5 30.0001V21.5989C17.5 19.8526 18.7212 18.3401 20.4137 17.9514C22.0362 19.2539 24.0737 20.0001 26.25 20.0001V17.5851C27.9325 19.1089 30.1313 20.0001 32.5 20.0001V17.5851C34.1825 19.1089 36.3812 20.0001 38.75 20.0001H40V30.0001C40 34.7551 36.995 38.9801 32.5875 40.5776C32.2162 40.0851 31.7712 39.6451 31.25 39.2876V35.1551C31.25 33.0026 29.4975 31.2501 27.3438 31.2501C25.3787 31.2501 23.7125 32.7214 23.4688 34.6714L22.855 39.5839C19.5563 37.5576 17.5 33.9564 17.5 30.0001ZM29.4825 47.5001H24.385L25.95 34.9814C26.0375 34.2789 26.6375 33.7501 27.3438 33.7501C28.12 33.7501 28.75 34.3801 28.75 35.1564V40.7739L29.4412 41.1189C30.5562 41.6764 31.25 42.7976 31.25 44.0451V44.3776C31.25 45.2389 30.9012 46.0826 30.2913 46.6914L29.4825 47.5001ZM3.75 65.1701C3.75 55.2239 11.53 47.0001 21.46 46.4489L22 46.4189L21.2025 52.7989C20.5737 57.8301 18.4875 62.6089 15.2775 66.5114L12.3675 60.6914L10.1312 61.8101L13.4788 68.5039L11.6163 70.3664L13.3837 72.1339L15.3313 70.1864C19.9137 65.6039 22.88 59.5389 23.6838 53.1089L24.0725 50.0001H28.75V56.1614C28.75 61.6864 27.0763 66.9976 23.9075 71.5239C21.8363 74.4826 18.4425 76.2501 14.83 76.2501C8.72125 76.2501 3.75 71.2789 3.75 65.1701ZM53.75 76.2501H46.25V57.5001H43.75V76.2501H22.66C23.9225 75.3589 25.0462 74.2564 25.955 72.9576C29.4188 68.0101 31.25 62.2014 31.25 56.1614V49.2676L32.0588 48.4589C32.6762 47.8414 33.1162 47.1014 33.3988 46.3026L36.0387 46.4489C45.9712 47.0001 53.75 55.2239 53.75 65.1701V76.2501Z" fill="#333333"/>
<path d="M33.75 57.5H41.25V60H33.75V57.5Z" fill="#333333"/>
<path d="M72.95 8.75H57.05C53.8525 8.75 51.25 11.3525 51.25 14.55C51.25 14.9325 51.2875 15.3163 51.3625 15.6875L53.0425 24.0875C53.5825 26.7887 55.9738 28.75 58.7288 28.75H60V30.7325C60 32.3962 61.3538 33.75 63.0175 33.75C63.8238 33.75 64.5812 33.4362 65.1512 32.8662L69.2675 28.75H71.27C74.0262 28.75 76.4175 26.7887 76.9562 24.0887L78.6362 15.6887C78.7125 15.315 78.75 14.9325 78.75 14.55C78.75 11.3525 76.1475 8.75 72.95 8.75ZM76.1863 15.1962L74.5062 23.5975C74.1987 25.135 72.8375 26.25 71.27 26.25H68.2325L63.3838 31.0987C63.0863 31.3962 62.5 31.155 62.5 30.7325V26.25H58.73C57.1625 26.25 55.8012 25.135 55.495 23.5975L53.815 15.195C53.7712 14.985 53.75 14.7675 53.75 14.55C53.75 12.73 55.23 11.25 57.05 11.25H72.95C74.77 11.25 76.25 12.73 76.25 14.55C76.25 14.7675 76.2288 14.985 76.1863 15.1962Z" fill="#333333"/>
<path d="M57.5 13.75H72.5V16.25H57.5V13.75Z" fill="#333333"/>
<path d="M57.5 18.75H72.5V21.25H57.5V18.75Z" fill="#333333"/>
</g>
<defs>
<clipPath id="clip0_97_33">
<rect width="80" height="80" fill="white"/>
</clipPath>
</defs>
</svg>
