<svg width="16" height="10" viewBox="0 0 16 10" fill="none" xmlns="http://www.w3.org/2000/svg">
<path d="M15.0328 1.20156C14.9781 1.475 14.7594 1.93984 14.3766 2.56875C14.1031 3.03359 13.775 3.55313 13.3922 4.15469C13.0641 4.64688 12.8727 4.89297 12.8727 4.89297C12.7633 5.05703 12.7086 5.19375 12.7086 5.27578C12.7086 5.38516 12.7633 5.49453 12.8727 5.60391L13.1188 5.87734C14.4313 7.24453 15.1696 8.17422 15.3336 8.66641C15.3883 8.88516 15.361 9.07656 15.2516 9.18594C15.1422 9.29531 15.0055 9.35 14.7867 9.35H13.1735C12.9547 9.35 12.7906 9.29531 12.6266 9.15859C12.5172 9.10391 12.2985 8.9125 12.025 8.58438C11.7516 8.25625 11.5055 7.98281 11.2867 7.76406C10.5485 7.08047 10.0016 6.725 9.67346 6.725C9.5094 6.725 9.40002 6.75234 9.34534 6.80703C9.29065 6.86172 9.26331 6.99844 9.26331 7.1625C9.23596 7.29922 9.23596 7.57266 9.23596 8.01016V8.72109C9.23596 8.93984 9.18127 9.10391 9.0719 9.18594C8.90784 9.29531 8.57971 9.35 8.08752 9.35C7.21252 9.35 6.36487 9.10391 5.48987 8.58438C4.61487 8.09219 3.84924 7.35391 3.19299 6.39688C2.56409 5.57656 2.04456 4.72891 1.6344 3.85391C1.30627 3.19766 1.03284 2.59609 0.841431 2.02188C0.704712 1.58438 0.650024 1.25625 0.650024 1.06484C0.650024 0.764063 0.814087 0.6 1.1969 0.6H2.81018C3.00159 0.6 3.13831 0.654688 3.24768 0.736719C3.35706 0.846094 3.43909 1.01016 3.52112 1.22891C3.76721 1.96719 4.06799 2.67813 4.45081 3.36172C4.77893 4.01797 5.10706 4.5375 5.43518 4.92031C5.76331 5.33047 6.0094 5.52188 6.20081 5.52188C6.31018 5.52188 6.36487 5.49453 6.41956 5.4125C6.47424 5.33047 6.50159 5.16641 6.50159 4.92031V2.54141C6.47424 2.26797 6.41956 1.99453 6.31018 1.77578C6.25549 1.66641 6.14612 1.52969 6.03674 1.36563C5.90002 1.20156 5.84534 1.09219 5.84534 0.982813C5.84534 0.873438 5.87268 0.791407 5.95471 0.709375C6.03674 0.654688 6.14612 0.6 6.25549 0.6H8.79846C8.96252 0.6 9.0719 0.654688 9.12659 0.736719C9.18127 0.846094 9.23596 0.982813 9.23596 1.20156V4.37344C9.23596 4.5375 9.26331 4.67422 9.31799 4.72891C9.37268 4.81094 9.42737 4.83828 9.5094 4.83828C9.59143 4.83828 9.70081 4.81094 9.81018 4.75625C9.91956 4.70156 10.0563 4.56484 10.2477 4.34609C10.5758 3.96328 10.9313 3.49844 11.2867 2.92422C11.5055 2.54141 11.7516 2.10391 11.9703 1.61172L12.2438 1.06484C12.3531 0.764063 12.5992 0.6 12.9274 0.6H14.5406C14.9781 0.6 15.1422 0.81875 15.0328 1.20156Z" fill="#333333"/>
</svg>
